<svg width="219" height="219" viewBox="0 0 219 219" fill="none" xmlns="http://www.w3.org/2000/svg">
<path d="M175.576 80.6547C178.54 107.268 182.822 110.881 200.276 131.252C212.3 145.284 203.699 168.929 195.541 183.269C193.424 186.988 189.373 189.077 185.089 189.077H72.5122C62.9755 189.077 27.9027 161.595 21.1162 154.907C-5.88957 128.294 9.58939 74.7402 28.691 64.2268C47.7926 53.7131 69.529 73.7547 103.78 42.8708C138.031 11.9868 172.832 56.013 175.576 80.6547Z" fill="#E7E8FF"/>
<path d="M64.0562 52.5729C73.5112 52.7478 80.1863 47.1054 82.342 44.2623C82.937 42.8771 83.6356 39.8008 81.6733 38.5761C79.2205 37.0452 72.3072 42.294 64.0562 40.1069C55.8054 37.92 53.7982 42.0752 47.3312 48.6363C40.8642 55.1973 52.2373 52.3542 64.0562 52.5729Z" fill="#E7E8FF"/>
<path d="M68.5046 189.077H102.333C111.749 185.62 124.304 181.472 121.165 173.52C118.026 165.569 102.333 176.286 98.1477 168.681C93.9633 161.075 127.792 160.038 124.304 150.358C120.816 140.678 99.5427 153.123 102.333 143.79C105.123 134.455 128.838 137.912 127.791 128.233C126.745 118.553 108.959 134.455 106.867 123.393C104.774 112.33 123.955 92.6247 108.959 89.1682C93.9633 85.7109 98.1477 121.664 92.9165 123.393C87.6853 125.121 82.8031 106.453 75.4797 114.75C68.1559 123.047 80.7109 141.715 75.4797 150.358C70.2484 159.001 62.9247 126.85 54.5548 141.715C47.8589 153.607 61.0648 178.245 68.5046 189.077Z" fill="white"/>
<path d="M167.393 128.709C166.22 157.322 175.228 178.778 180.72 187.28C181.22 188.055 182.088 188.488 183.012 188.488H184.798C186.378 188.488 187.658 187.19 187.633 185.619C187.017 147.27 177.389 131.409 170.591 126.78C169.14 125.791 167.464 126.96 167.393 128.709Z" fill="white"/>
<path fill-rule="evenodd" clip-rule="evenodd" d="M168.794 127.214C168.359 127.491 168.013 128.037 167.985 128.732C166.817 157.221 175.79 178.558 181.219 186.961C181.601 187.553 182.272 187.898 183.013 187.898H184.798C186.046 187.898 187.061 186.871 187.041 185.628C186.734 166.498 184.179 153.013 180.872 143.751C177.562 134.481 173.515 129.485 170.257 127.266C169.735 126.909 169.21 126.949 168.794 127.214ZM168.156 126.22C168.957 125.711 169.996 125.66 170.926 126.293C174.465 128.703 178.631 133.953 181.988 143.357C185.35 152.771 187.917 166.391 188.225 185.609C188.256 187.508 186.71 189.077 184.798 189.077H183.013C181.903 189.077 180.84 188.555 180.222 187.599C174.667 178.999 165.623 157.423 166.801 128.685C166.844 127.631 167.372 126.719 168.156 126.22Z" fill="#032068"/>
<path d="M208.393 143.85C193.01 154.244 185.794 173.997 183.538 185.545C183.208 187.229 184.539 188.732 186.263 188.732H188.559C189.245 188.732 189.91 188.488 190.419 188.031C203.626 176.147 209.899 157.662 212.104 146.341C212.533 144.137 210.26 142.589 208.393 143.85Z" fill="#032068"/>
<path fill-rule="evenodd" clip-rule="evenodd" d="M172.303 132.984C173.9 137.826 175.344 142.574 176.643 147.142C177.695 150.842 178.652 154.424 179.517 157.842L181.236 153.659L182.332 154.105L180.001 159.777C181.52 165.918 182.735 171.483 183.667 176.189C184.746 181.637 185.446 185.939 185.8 188.656L184.626 188.808C184.281 186.169 183.603 181.991 182.558 176.69L177.339 173.898L177.9 172.86L182.26 175.192C181.357 170.724 180.211 165.543 178.805 159.872C177.849 156.02 176.773 151.941 175.572 147.706L170.238 144.899L170.792 143.858L175.123 146.137C173.928 141.993 172.614 137.71 171.177 133.352L172.303 132.984Z" fill="#032068"/>
<path fill-rule="evenodd" clip-rule="evenodd" d="M203.923 156.54C205.526 153.962 207.065 151.672 208.465 149.854L207.524 149.138C205.856 151.304 204.009 154.105 202.108 157.233C200.323 160.169 198.484 163.403 196.69 166.69L196.337 161.881L195.156 161.967L195.644 168.621C193.549 172.52 191.544 176.429 189.793 179.94C188.141 183.252 186.716 186.213 185.656 188.483L186.73 188.98C187.765 186.766 189.15 183.887 190.754 180.664L195.969 178.555L195.523 177.463L191.553 179.069C193.149 175.894 194.926 172.455 196.77 169.027C198.818 165.22 200.947 161.431 203.003 158.039L206.937 156.884L206.602 155.754L203.923 156.54Z" fill="white"/>
<path d="M50.0277 104.22L48.662 111.39L50.0277 118.902C53.556 119.357 60.749 120.268 61.2954 120.268C61.8416 120.268 65.8479 116.853 67.7827 115.146L65.7341 104.22C71.4703 102.308 73.3593 93.8628 73.5871 89.8792C74.9529 73.4899 64.0269 71.4414 61.9782 71.4414C59.9295 71.4414 46.9547 71.4414 45.2475 85.0991C43.8817 96.025 47.8653 102.399 50.0277 104.22Z" fill="#EFCB96"/>
<path d="M16.9071 188.898H70.5137L138.461 188.556C142.665 185.814 143.842 181.39 143.853 177.638C143.863 174.563 141.646 172.09 138.877 170.755C127.874 165.451 111.174 157.242 108.072 155.095C103.634 152.022 99.5362 135.291 91.342 122.316C84.7859 111.937 72.4486 109.569 67.4407 109.683C66.9855 111.731 65.0506 115.829 58.2217 115.829C51.3929 115.829 48.5475 111.731 47.637 109.683C44.1087 109.683 34.3207 111.595 26.126 119.243C15.8899 128.797 11.4502 150.626 7.35526 170.759L7.34664 170.801C4.06882 186.917 12.3545 189.353 16.9071 188.898Z" fill="#F4AD5E"/>
<path d="M39.7836 162.607L44.9052 141.778L43.8809 162.607L67.2028 168.295C70.1973 169.026 72.9977 170.887 73.5642 173.917C74.5753 179.321 72.559 185.069 70.1721 187.19C72.2207 184.259 72.2207 173.192 69.8306 171.484C67.9186 170.118 44.2224 165.679 32.6133 163.631L39.7836 162.607Z" fill="#032068"/>
<path d="M90.6587 136.315L103.292 188.897H108.755L90.6587 136.315Z" fill="#032068"/>
<path d="M53.7823 97.3909C52.4164 105.313 50.4816 106.155 49.6849 105.586C40.1245 99.44 40.3551 79.8038 46.2705 73.1484C51.7336 67.0027 55.8309 69.3928 67.0986 66.6613C78.3664 63.9298 82.1222 68.7099 80.0731 74.8558C77.1239 83.7034 67.7814 78.9533 65.3913 79.9775C63.0012 81.0017 59.9282 83.7334 58.5624 89.1967C57.1967 94.6593 56.5138 93.6351 55.4894 90.5625C54.4651 87.4892 51.7336 83.0508 49.6849 88.5134C48.046 92.8839 51.7336 96.2528 53.7823 97.3909Z" fill="#032068"/>
<path d="M94.0731 188.898C94.0731 179.611 80.3017 176.834 73.5864 176.606C73.5864 181.25 70.7413 186.736 69.1479 188.898H94.0731Z" fill="#EFCB96"/>
<path d="M160.437 188.271C160.437 180.015 149.524 178.261 143.637 178.059C143.637 182.186 139.982 186.348 138.584 188.271H160.437Z" fill="#EFCB96"/>
<path fill-rule="evenodd" clip-rule="evenodd" d="M6.61623 176.573C6.45479 183.165 8.76614 188.897 15.8189 188.897H22.0301C20.3912 177.971 11.7221 171.371 7.62457 169.436C7.53463 169.877 7.44491 170.319 7.35534 170.759L7.3468 170.801C6.91004 172.948 6.67858 174.865 6.61623 176.573Z" fill="#032068"/>
<path d="M59.1802 104.116C62.3602 105.176 64.5634 104.558 65.6675 104.116L66.6919 108.896C62.4519 108.366 60.0635 105.33 59.1802 104.116Z" fill="#032068"/>
<path d="M127.728 138.923L109.337 180.687C108.413 182.784 109.948 185.138 112.239 185.138H168.36C169.649 185.138 170.81 184.358 171.297 183.165L188.347 141.401C189.199 139.313 187.664 137.029 185.411 137.029H130.631C129.374 137.029 128.235 137.772 127.728 138.923Z" fill="white"/>
<path fill-rule="evenodd" clip-rule="evenodd" d="M130.631 137.688C129.635 137.688 128.733 138.277 128.331 139.189L109.939 180.953C109.207 182.613 110.424 184.479 112.239 184.479H168.36C169.381 184.479 170.301 183.861 170.687 182.916L187.737 141.151C188.412 139.498 187.196 137.688 185.411 137.688H130.631ZM127.125 138.657C127.737 137.267 129.112 136.37 130.631 136.37H185.411C188.132 136.37 189.986 139.13 188.957 141.649L171.907 183.414C171.319 184.855 169.916 185.796 168.36 185.796H112.239C109.472 185.796 107.618 182.954 108.734 180.422L127.125 138.657Z" fill="#032068"/>
<path d="M144.869 157.742C145.901 155.35 148.256 153.801 150.861 153.801C155.552 153.801 158.71 158.602 156.853 162.91L156.389 163.983C155.358 166.375 153.003 167.924 150.398 167.924C145.707 167.924 142.548 163.123 144.406 158.815L144.869 157.742Z" fill="#F4AD5E"/>
<path d="M167.479 189.11H70.0808C68.4963 189.11 67.2119 187.826 67.2119 186.241C67.2119 184.657 68.4963 183.372 70.0808 183.372H167.479C169.535 183.372 170.923 185.471 170.119 187.363C169.67 188.422 168.63 189.11 167.479 189.11Z" fill="#032068"/>
<path d="M127.718 56.0177C127.718 54.4896 128.954 53.251 130.478 53.251H182.491C184.015 53.251 185.251 54.4896 185.251 56.0177V84.2961C185.251 85.824 184.015 87.0628 182.491 87.0628H130.478C128.954 87.0628 127.718 85.824 127.718 84.2961V56.0177Z" fill="white"/>
<path fill-rule="evenodd" clip-rule="evenodd" d="M127.166 56.0177C127.166 54.1841 128.649 52.6978 130.478 52.6978H182.491C184.32 52.6978 185.803 54.1841 185.803 56.0177V84.2962C185.803 86.1299 184.32 87.6162 182.491 87.6162H130.478C128.649 87.6162 127.166 86.1299 127.166 84.2962V56.0177ZM130.478 53.8044C129.258 53.8044 128.27 54.7953 128.27 56.0177V84.2962C128.27 85.5182 129.258 86.5095 130.478 86.5095H182.491C183.71 86.5095 184.699 85.5182 184.699 84.2962V56.0177C184.699 54.7953 183.71 53.8044 182.491 53.8044H130.478Z" fill="#032068"/>
<path d="M167.882 68.8148L153.905 80.698V84.0976C153.905 85.6255 155.14 86.8636 156.665 86.8636H182.491C184.015 86.8636 185.251 85.6255 185.251 84.0976V79.4022L171.344 68.7281C170.313 67.9369 168.872 67.973 167.882 68.8148Z" fill="#032068"/>
<path d="M160.59 63.7615C160.59 65.8317 158.916 67.5099 156.851 67.5099C154.786 67.5099 153.112 65.8317 153.112 63.7615C153.112 61.6914 154.786 60.0132 156.851 60.0132C158.916 60.0132 160.59 61.6914 160.59 63.7615Z" fill="#F4AD5E"/>
<path d="M141.886 68.8024L127.718 80.6979V84.2961C127.718 85.824 128.954 87.0628 130.478 87.0628H168.983L145.347 68.7349C144.32 67.9394 142.881 67.9675 141.886 68.8024Z" fill="white"/>
<path fill-rule="evenodd" clip-rule="evenodd" d="M145.009 69.1727C144.188 68.5363 143.036 68.5587 142.241 69.2266L128.27 80.9565V84.2962C128.27 85.5182 129.258 86.5096 130.478 86.5096H167.367L145.009 69.1727ZM141.532 68.3782C142.725 67.3764 144.453 67.3428 145.684 68.2973L170.599 87.6163H130.478C128.649 87.6163 127.166 86.13 127.166 84.2962V80.4396L141.532 68.3782Z" fill="#032068"/>
<path d="M200.993 95.239L198.71 98.1882C198.572 98.3678 198.345 98.4539 198.123 98.4123L195.303 97.8787C194.696 97.764 194.33 98.5342 194.798 98.9401L197.015 100.861C197.177 101.002 197.253 101.218 197.216 101.43L196.66 104.598C196.555 105.194 197.282 105.563 197.694 105.122L199.971 102.688C200.105 102.545 200.298 102.475 200.492 102.502L203.127 102.865C203.72 102.946 204.057 102.2 203.605 101.802L201.646 100.076C201.488 99.9372 201.413 99.7263 201.446 99.5182L202.065 95.712C202.166 95.0893 201.378 94.7411 200.993 95.239Z" fill="#F4AD5E"/>
<path d="M169.668 33.199L170.139 35.0381C170.168 35.15 170.131 35.271 170.045 35.3517L168.95 36.3788C168.714 36.5997 168.909 36.9832 169.219 36.9072L170.683 36.5481C170.789 36.5219 170.9 36.5541 170.973 36.633L172.071 37.8116C172.278 38.0331 172.653 37.8375 172.605 37.5334L172.339 35.8498C172.323 35.7509 172.356 35.6488 172.427 35.5756L173.395 34.5754C173.613 34.3501 173.419 33.9861 173.119 34.0574L171.813 34.3668C171.708 34.3917 171.6 34.3604 171.527 34.2842L170.193 32.8895C169.974 32.6614 169.589 32.8889 169.668 33.199Z" fill="#F4AD5E"/>
</svg>
